<?xml version="1.0" standalone="no"?>
<!DOCTYPE svg PUBLIC "-//W3C//DTD SVG 20010904//EN"
 "http://www.w3.org/TR/2001/REC-SVG-20010904/DTD/svg10.dtd">
<svg version="1.0" xmlns="http://www.w3.org/2000/svg"
 width="644.000000pt" height="405.000000pt" viewBox="0 0 644.000000 405.000000"
 preserveAspectRatio="xMidYMid meet">

<g transform="translate(0.000000,405.000000) scale(0.100000,-0.100000)"
fill="#000000" stroke="none">
<path d="M0 2025 l0 -2025 3220 0 3220 0 0 2025 0 2025 -3220 0 -3220 0 0
-2025z m3300 1271 c0 -6 -31 20 -69 58 l-68 68 -179 -186 c-98 -102 -183 -186
-187 -186 -5 0 76 88 179 195 l188 195 68 -67 c37 -37 68 -72 68 -77z m110
-14 l0 -88 65 -64 c36 -35 65 -69 65 -74 0 -6 -31 21 -70 59 l-70 69 0 88 0
87 -52 4 -53 3 58 2 57 2 0 -88z m-412 -555 l107 -3 -112 -2 -113 -2 2 168 2
167 3 -162 3 -162 108 -4z m462 158 l0 -165 -115 0 -115 0 0 130 0 129 -67 4
-68 3 78 2 77 2 0 -130 0 -130 95 0 95 0 0 160 c0 100 4 160 10 160 6 0 10
-62 10 -165z m-1158 -376 c68 -18 87 -102 36 -156 -18 -19 -32 -23 -80 -23
l-58 0 0 -60 c0 -53 -2 -60 -20 -60 -19 0 -20 7 -20 155 l0 155 53 0 c28 0 69
-5 89 -11z m408 -7 c40 -19 80 -88 80 -137 -1 -47 -35 -112 -72 -135 -41 -25
-111 -26 -158 -2 -91 46 -101 200 -16 262 47 35 112 40 166 12z m260 -47 c0
-51 3 -65 15 -65 8 0 38 29 67 65 37 46 58 65 75 65 13 0 23 -3 23 -6 0 -4
-19 -30 -43 -58 -80 -96 -87 -63 46 -233 7 -10 2 -13 -19 -13 -24 1 -38 13
-82 70 -69 91 -82 91 -82 0 0 -63 -2 -70 -20 -70 -19 0 -20 7 -20 155 0 148 1
155 20 155 18 0 20 -7 20 -65z m519 47 c47 -23 72 -61 78 -115 7 -57 -10 -106
-47 -142 -41 -39 -128 -46 -178 -16 -45 29 -72 77 -72 131 0 122 114 196 219
142z m346 -114 c0 -120 -1 -128 -24 -152 -19 -20 -34 -26 -65 -26 -49 0 -69
11 -61 33 5 11 15 14 41 10 58 -9 64 4 64 137 0 64 3 120 7 124 4 4 14 5 23 4
13 -3 15 -24 15 -130z m325 112 c0 -18 -7 -20 -60 -20 l-60 0 0 -50 0 -50 56
0 c47 0 55 -3 52 -17 -2 -14 -15 -19 -56 -21 l-52 -3 0 -45 0 -44 60 0 c54 0
60 -2 60 -20 0 -20 -5 -21 -82 -18 l-83 3 -3 140 c-1 76 0 145 2 152 4 9 29
13 86 13 73 0 80 -2 80 -20z m-1366 -402 c-4 -6 -70 -91 -146 -187 l-139 -176
88 -6 c106 -7 163 -30 231 -93 157 -147 147 -435 -18 -566 -127 -101 -305
-118 -453 -43 -140 70 -222 249 -187 412 18 87 55 146 265 421 l190 250 88 0
c66 0 86 -3 81 -12z m1198 -365 l3 -378 83 -3 82 -3 0 -69 0 -70 -85 0 -85 0
0 -110 0 -110 -75 0 -75 0 0 110 0 110 -262 2 -263 3 -3 69 -3 69 227 378 227
379 113 0 114 0 2 -377z m168 -1088 l0 -25 -1000 0 -1000 0 0 25 0 25 1000 0
1000 0 0 -25z"/>
<path d="M2200 2425 l0 -55 49 0 c54 0 74 15 74 57 0 35 -27 53 -80 53 l-43 0
0 -55z"/>
<path d="M2594 2470 c-78 -31 -87 -160 -14 -203 35 -21 72 -22 110 -2 39 20
50 43 50 102 -1 85 -70 134 -146 103z"/>
<path d="M3364 2461 c-64 -39 -71 -132 -13 -185 28 -25 38 -28 78 -23 75 8
115 72 92 148 -21 70 -95 98 -157 60z"/>
<path d="M2509 1609 c-83 -12 -152 -66 -184 -143 -23 -54 -21 -155 3 -208 83
-183 369 -181 446 4 23 53 20 162 -4 216 -44 96 -147 148 -261 131z"/>
<path d="M3652 1675 c-100 -173 -182 -317 -182 -320 0 -3 83 -5 185 -5 l185 0
0 320 c0 176 -1 320 -3 320 -1 0 -84 -142 -185 -315z"/>
</g>
</svg>
